<svg xmlns="http://www.w3.org/2000/svg" viewBox="0 0 900 1100" width="900" height="1100" role="img" aria-label="Placeholder graphic">
  <defs>
    <linearGradient id="bgGrad" x1="0" y1="0" x2="1" y2="1">
      <stop offset="0%" stop-color="#F2EFE8"/>
      <stop offset="100%" stop-color="#E7E2D6"/>
    </linearGradient>
  </defs>
  <rect width="900" height="1100" fill="url(#bgGrad)"/>
  <g>
    <line x1="56" y1="0" x2="56" y2="1100" stroke="#DDD8CC" stroke-width="1" opacity="0.35"/>
      <line x1="112" y1="0" x2="112" y2="1100" stroke="#DDD8CC" stroke-width="1" opacity="0.35"/>
      <line x1="168" y1="0" x2="168" y2="1100" stroke="#DDD8CC" stroke-width="1" opacity="0.35"/>
      <line x1="224" y1="0" x2="224" y2="1100" stroke="#DDD8CC" stroke-width="1" opacity="0.35"/>
      <line x1="280" y1="0" x2="280" y2="1100" stroke="#DDD8CC" stroke-width="1" opacity="0.35"/>
      <line x1="336" y1="0" x2="336" y2="1100" stroke="#DDD8CC" stroke-width="1" opacity="0.35"/>
      <line x1="392" y1="0" x2="392" y2="1100" stroke="#DDD8CC" stroke-width="1" opacity="0.35"/>
      <line x1="448" y1="0" x2="448" y2="1100" stroke="#DDD8CC" stroke-width="1" opacity="0.35"/>
      <line x1="504" y1="0" x2="504" y2="1100" stroke="#DDD8CC" stroke-width="1" opacity="0.35"/>
      <line x1="560" y1="0" x2="560" y2="1100" stroke="#DDD8CC" stroke-width="1" opacity="0.35"/>
      <line x1="616" y1="0" x2="616" y2="1100" stroke="#DDD8CC" stroke-width="1" opacity="0.35"/>
      <line x1="672" y1="0" x2="672" y2="1100" stroke="#DDD8CC" stroke-width="1" opacity="0.35"/>
      <line x1="728" y1="0" x2="728" y2="1100" stroke="#DDD8CC" stroke-width="1" opacity="0.35"/>
      <line x1="784" y1="0" x2="784" y2="1100" stroke="#DDD8CC" stroke-width="1" opacity="0.35"/>
      <line x1="840" y1="0" x2="840" y2="1100" stroke="#DDD8CC" stroke-width="1" opacity="0.35"/>
      <line x1="896" y1="0" x2="896" y2="1100" stroke="#DDD8CC" stroke-width="1" opacity="0.35"/>
      <line x1="0" y1="56" x2="900" y2="56" stroke="#DDD8CC" stroke-width="1" opacity="0.35"/>
      <line x1="0" y1="112" x2="900" y2="112" stroke="#DDD8CC" stroke-width="1" opacity="0.35"/>
      <line x1="0" y1="168" x2="900" y2="168" stroke="#DDD8CC" stroke-width="1" opacity="0.35"/>
      <line x1="0" y1="224" x2="900" y2="224" stroke="#DDD8CC" stroke-width="1" opacity="0.35"/>
      <line x1="0" y1="280" x2="900" y2="280" stroke="#DDD8CC" stroke-width="1" opacity="0.35"/>
      <line x1="0" y1="336" x2="900" y2="336" stroke="#DDD8CC" stroke-width="1" opacity="0.35"/>
      <line x1="0" y1="392" x2="900" y2="392" stroke="#DDD8CC" stroke-width="1" opacity="0.35"/>
      <line x1="0" y1="448" x2="900" y2="448" stroke="#DDD8CC" stroke-width="1" opacity="0.35"/>
      <line x1="0" y1="504" x2="900" y2="504" stroke="#DDD8CC" stroke-width="1" opacity="0.35"/>
      <line x1="0" y1="560" x2="900" y2="560" stroke="#DDD8CC" stroke-width="1" opacity="0.35"/>
      <line x1="0" y1="616" x2="900" y2="616" stroke="#DDD8CC" stroke-width="1" opacity="0.35"/>
      <line x1="0" y1="672" x2="900" y2="672" stroke="#DDD8CC" stroke-width="1" opacity="0.35"/>
      <line x1="0" y1="728" x2="900" y2="728" stroke="#DDD8CC" stroke-width="1" opacity="0.35"/>
      <line x1="0" y1="784" x2="900" y2="784" stroke="#DDD8CC" stroke-width="1" opacity="0.35"/>
      <line x1="0" y1="840" x2="900" y2="840" stroke="#DDD8CC" stroke-width="1" opacity="0.35"/>
      <line x1="0" y1="896" x2="900" y2="896" stroke="#DDD8CC" stroke-width="1" opacity="0.35"/>
      <line x1="0" y1="952" x2="900" y2="952" stroke="#DDD8CC" stroke-width="1" opacity="0.35"/>
      <line x1="0" y1="1008" x2="900" y2="1008" stroke="#DDD8CC" stroke-width="1" opacity="0.35"/>
      <line x1="0" y1="1064" x2="900" y2="1064" stroke="#DDD8CC" stroke-width="1" opacity="0.35"/>
  </g>
  
  <g transform="translate(450.0,462.0)">
    <circle r="120" fill="none" stroke="#5B6470" stroke-width="3"/>
    <circle cy="-18" r="46" fill="none" stroke="#5B6470" stroke-width="3"/>
    <path d="M -78 92 C -78 10, 78 10, 78 92" fill="none" stroke="#5B6470" stroke-width="3"/>
  </g>
  <text x="450.0" y="814.0" text-anchor="middle" font-family="Georgia, serif" font-size="30" fill="#5B6470" letter-spacing="0.5">Chris Lund</text>
  <text x="450.0" y="858.0" text-anchor="middle" font-family="Arial, sans-serif" font-size="18" fill="#8A929C" letter-spacing="2">PORTRAIT PLACEHOLDER</text>

</svg>