<svg xmlns="http://www.w3.org/2000/svg" viewBox="0 0 640 480" width="640" height="480" role="img" aria-label="Placeholder graphic">
  <defs>
    <linearGradient id="bgGrad" x1="0" y1="0" x2="1" y2="1">
      <stop offset="0%" stop-color="#F2EFE8"/>
      <stop offset="100%" stop-color="#DDD8CC"/>
    </linearGradient>
  </defs>
  <rect width="640" height="480" fill="url(#bgGrad)"/>
  <g>
    <line x1="40" y1="0" x2="40" y2="480" stroke="#DDD8CC" stroke-width="1" opacity="0.35"/>
      <line x1="80" y1="0" x2="80" y2="480" stroke="#DDD8CC" stroke-width="1" opacity="0.35"/>
      <line x1="120" y1="0" x2="120" y2="480" stroke="#DDD8CC" stroke-width="1" opacity="0.35"/>
      <line x1="160" y1="0" x2="160" y2="480" stroke="#DDD8CC" stroke-width="1" opacity="0.35"/>
      <line x1="200" y1="0" x2="200" y2="480" stroke="#DDD8CC" stroke-width="1" opacity="0.35"/>
      <line x1="240" y1="0" x2="240" y2="480" stroke="#DDD8CC" stroke-width="1" opacity="0.35"/>
      <line x1="280" y1="0" x2="280" y2="480" stroke="#DDD8CC" stroke-width="1" opacity="0.35"/>
      <line x1="320" y1="0" x2="320" y2="480" stroke="#DDD8CC" stroke-width="1" opacity="0.35"/>
      <line x1="360" y1="0" x2="360" y2="480" stroke="#DDD8CC" stroke-width="1" opacity="0.35"/>
      <line x1="400" y1="0" x2="400" y2="480" stroke="#DDD8CC" stroke-width="1" opacity="0.35"/>
      <line x1="440" y1="0" x2="440" y2="480" stroke="#DDD8CC" stroke-width="1" opacity="0.35"/>
      <line x1="480" y1="0" x2="480" y2="480" stroke="#DDD8CC" stroke-width="1" opacity="0.35"/>
      <line x1="520" y1="0" x2="520" y2="480" stroke="#DDD8CC" stroke-width="1" opacity="0.35"/>
      <line x1="560" y1="0" x2="560" y2="480" stroke="#DDD8CC" stroke-width="1" opacity="0.35"/>
      <line x1="600" y1="0" x2="600" y2="480" stroke="#DDD8CC" stroke-width="1" opacity="0.35"/>
      <line x1="0" y1="40" x2="640" y2="40" stroke="#DDD8CC" stroke-width="1" opacity="0.35"/>
      <line x1="0" y1="80" x2="640" y2="80" stroke="#DDD8CC" stroke-width="1" opacity="0.35"/>
      <line x1="0" y1="120" x2="640" y2="120" stroke="#DDD8CC" stroke-width="1" opacity="0.35"/>
      <line x1="0" y1="160" x2="640" y2="160" stroke="#DDD8CC" stroke-width="1" opacity="0.35"/>
      <line x1="0" y1="200" x2="640" y2="200" stroke="#DDD8CC" stroke-width="1" opacity="0.35"/>
      <line x1="0" y1="240" x2="640" y2="240" stroke="#DDD8CC" stroke-width="1" opacity="0.35"/>
      <line x1="0" y1="280" x2="640" y2="280" stroke="#DDD8CC" stroke-width="1" opacity="0.35"/>
      <line x1="0" y1="320" x2="640" y2="320" stroke="#DDD8CC" stroke-width="1" opacity="0.35"/>
      <line x1="0" y1="360" x2="640" y2="360" stroke="#DDD8CC" stroke-width="1" opacity="0.35"/>
      <line x1="0" y1="400" x2="640" y2="400" stroke="#DDD8CC" stroke-width="1" opacity="0.35"/>
      <line x1="0" y1="440" x2="640" y2="440" stroke="#DDD8CC" stroke-width="1" opacity="0.35"/>
  </g>
  <g fill="none" stroke="#5B6470" stroke-width="3" stroke-linecap="round" stroke-linejoin="round" transform="translate(260.0,180.0)">
    
    <rect x="30" y="30" width="60" height="60" rx="4"/>
    <circle cx="60" cy="60" r="16"/>
    <line x1="30" y1="30" x2="14" y2="14"/>
    <line x1="90" y1="30" x2="106" y2="14"/>
    <line x1="30" y1="90" x2="14" y2="106"/>
    <line x1="90" y1="90" x2="106" y2="106"/>

  </g>
</svg>