<svg xmlns="http://www.w3.org/2000/svg" viewBox="0 0 1800 1200" width="1800" height="1200" role="img" aria-label="Placeholder graphic">
  <defs>
    <linearGradient id="bgGrad" x1="0" y1="0" x2="1" y2="1">
      <stop offset="0%" stop-color="#F2EFE8"/>
      <stop offset="100%" stop-color="#E2DCCB"/>
    </linearGradient>
  </defs>
  <rect width="1800" height="1200" fill="url(#bgGrad)"/>
  <g>
    <line x1="112" y1="0" x2="112" y2="1200" stroke="#DDD8CC" stroke-width="1" opacity="0.35"/>
      <line x1="224" y1="0" x2="224" y2="1200" stroke="#DDD8CC" stroke-width="1" opacity="0.35"/>
      <line x1="336" y1="0" x2="336" y2="1200" stroke="#DDD8CC" stroke-width="1" opacity="0.35"/>
      <line x1="448" y1="0" x2="448" y2="1200" stroke="#DDD8CC" stroke-width="1" opacity="0.35"/>
      <line x1="560" y1="0" x2="560" y2="1200" stroke="#DDD8CC" stroke-width="1" opacity="0.35"/>
      <line x1="672" y1="0" x2="672" y2="1200" stroke="#DDD8CC" stroke-width="1" opacity="0.35"/>
      <line x1="784" y1="0" x2="784" y2="1200" stroke="#DDD8CC" stroke-width="1" opacity="0.35"/>
      <line x1="896" y1="0" x2="896" y2="1200" stroke="#DDD8CC" stroke-width="1" opacity="0.35"/>
      <line x1="1008" y1="0" x2="1008" y2="1200" stroke="#DDD8CC" stroke-width="1" opacity="0.35"/>
      <line x1="1120" y1="0" x2="1120" y2="1200" stroke="#DDD8CC" stroke-width="1" opacity="0.35"/>
      <line x1="1232" y1="0" x2="1232" y2="1200" stroke="#DDD8CC" stroke-width="1" opacity="0.35"/>
      <line x1="1344" y1="0" x2="1344" y2="1200" stroke="#DDD8CC" stroke-width="1" opacity="0.35"/>
      <line x1="1456" y1="0" x2="1456" y2="1200" stroke="#DDD8CC" stroke-width="1" opacity="0.35"/>
      <line x1="1568" y1="0" x2="1568" y2="1200" stroke="#DDD8CC" stroke-width="1" opacity="0.35"/>
      <line x1="1680" y1="0" x2="1680" y2="1200" stroke="#DDD8CC" stroke-width="1" opacity="0.35"/>
      <line x1="1792" y1="0" x2="1792" y2="1200" stroke="#DDD8CC" stroke-width="1" opacity="0.35"/>
      <line x1="0" y1="112" x2="1800" y2="112" stroke="#DDD8CC" stroke-width="1" opacity="0.35"/>
      <line x1="0" y1="224" x2="1800" y2="224" stroke="#DDD8CC" stroke-width="1" opacity="0.35"/>
      <line x1="0" y1="336" x2="1800" y2="336" stroke="#DDD8CC" stroke-width="1" opacity="0.35"/>
      <line x1="0" y1="448" x2="1800" y2="448" stroke="#DDD8CC" stroke-width="1" opacity="0.35"/>
      <line x1="0" y1="560" x2="1800" y2="560" stroke="#DDD8CC" stroke-width="1" opacity="0.35"/>
      <line x1="0" y1="672" x2="1800" y2="672" stroke="#DDD8CC" stroke-width="1" opacity="0.35"/>
      <line x1="0" y1="784" x2="1800" y2="784" stroke="#DDD8CC" stroke-width="1" opacity="0.35"/>
      <line x1="0" y1="896" x2="1800" y2="896" stroke="#DDD8CC" stroke-width="1" opacity="0.35"/>
      <line x1="0" y1="1008" x2="1800" y2="1008" stroke="#DDD8CC" stroke-width="1" opacity="0.35"/>
      <line x1="0" y1="1120" x2="1800" y2="1120" stroke="#DDD8CC" stroke-width="1" opacity="0.35"/>
  </g>
  <rect x="900" y="180" width="760" height="760" fill="none" stroke="#8A929C" stroke-width="2" opacity="0.6"/>
  <line x1="900" y1="560" x2="1660" y2="560" stroke="#8A929C" stroke-width="2" opacity="0.5"/>
  <line x1="1280" y1="180" x2="1280" y2="940" stroke="#8A929C" stroke-width="2" opacity="0.5"/>
  <rect x="960" y="620" width="50" height="260" fill="none" stroke="#5B6470" stroke-width="2" opacity="0.45"/>
  <rect x="1050" y="620" width="50" height="260" fill="none" stroke="#5B6470" stroke-width="2" opacity="0.45"/>
  <rect x="1140" y="620" width="50" height="260" fill="none" stroke="#5B6470" stroke-width="2" opacity="0.45"/>
  <rect x="1230" y="620" width="50" height="260" fill="none" stroke="#5B6470" stroke-width="2" opacity="0.45"/>
  <rect x="1320" y="620" width="50" height="260" fill="none" stroke="#5B6470" stroke-width="2" opacity="0.45"/>
  <rect x="1410" y="620" width="50" height="260" fill="none" stroke="#5B6470" stroke-width="2" opacity="0.45"/>
  <rect x="1500" y="620" width="50" height="260" fill="none" stroke="#5B6470" stroke-width="2" opacity="0.45"/>
  <rect x="1590" y="620" width="50" height="260" fill="none" stroke="#5B6470" stroke-width="2" opacity="0.45"/>
</svg>